$MeshFormat
4.1 0 8
$EndMeshFormat
$Entities
11 12 2 0
1 0 0 0 0 
2 -0.5 0 0 0 
3 0 0.5 0 0 
4 -5 2.5 0 0 
5 -5 0 0 0 
6 15 0 0 0 
7 15 2.5 0 0 
8 -5 -2.5 0 0 
12 15 -2.5 0 0 
15 0.5 0 0 0 
16 0 -0.5 0 0 
7 15 0 0 15 2.5 0 1 11 2 6 -7 
8 -5 2.5 0 15 2.5 0 1 12 2 7 -4 
9 -5 0 0 -5 2.5 0 1 10 2 4 -5 
10 -0.5 2.775557561562891e-17 0 0 0.5 0 1 13 2 3 -2 
11 -5 -2.5 0 -5 0 0 1 10 2 8 -5 
12 -5 -2.5 0 15 -2.5 0 1 12 2 12 -8 
13 15 -2.5 0 15 0 0 1 11 2 6 -12 
14 0 2.775557561562891e-17 0 0.5 0.5 0 1 13 2 3 -15 
15 0 -0.5 0 0.5 -2.775557561562891e-17 0 1 13 2 16 -15 
16 -0.5 -0.5 0 0 -2.775557561562891e-17 0 1 13 2 16 -2 
17 -5 0 0 -0.5 0 0 0 2 5 -2 
18 0.5 0 0 15 0 0 0 2 15 -6 
1 -5 0 0 15 2.5 0 1 1 7 8 9 17 -10 14 18 7 
19 -5 -2.5 0 15 0 0 1 1 7 12 11 17 -16 15 18 13 
$EndEntities
$Nodes
24 805 1 805
0 2 0 1
1
-0.5 0 0
0 3 0 1
2
0 0.5 0
0 4 0 1
3
-5 2.5 0
0 5 0 1
4
-5 0 0
0 6 0 1
5
15 0 0
0 7 0 1
6
15 2.5 0
0 8 0 1
7
-5 -2.5 0
0 12 0 1
8
15 -2.5 0
0 15 0 1
9
0.5 0 0
0 16 0 1
10
0 -0.5 0
1 7 0 4
11
12
13
14
15 0.4999999999992064 0
15 0.9999999999977549 0
15 1.49999999999848 0
15 1.99999999999924 0
1 8 0 33
15
16
17
18
19
20
21
22
23
24
25
26
27
28
29
30
31
32
33
34
35
36
37
38
39
40
41
42
43
44
45
46
47
14.41176470588221 2.5 0
13.82352941176442 2.5 0
13.23529411764663 2.5 0
12.64705882352884 2.5 0
12.05882352941105 2.5 0
11.47058823529325 2.5 0
10.88235294117546 2.5 0
10.29411764705767 2.5 0
9.705882352939881 2.5 0
9.117647058822094 2.5 0
8.529411764704303 2.5 0
7.941176470586982 2.5 0
7.352941176471806 2.5 0
6.764705882355791 2.5 0
6.176470588238001 2.5 0
5.588235294120212 2.5 0
5.000000000002421 2.5 0
4.411764705884632 2.5 0
3.823529411766843 2.5 0
3.235294117649053 2.5 0
2.647058823531264 2.5 0
2.058823529413477 2.5 0
1.470588235295686 2.5 0
0.8823529411778956 2.5 0
0.294117647060105 2.5 0
-0.2941176470576838 2.5 0
-0.8823529411754727 2.5 0
-1.470588235293263 2.5 0
-2.05882352941105 2.5 0
-2.647058823528841 2.5 0
-3.235294117646632 2.5 0
-3.823529411764419 2.5 0
-4.411764705882209 2.5 0
1 9 0 4
48
49
50
51
-5 1.999999999999999 0
-5 1.499999999999999 0
-5 0.9999999999999991 0
-5 0.4999999999999996 0
1 10 0 5
52
53
54
55
56
-0.1294095228858618 0.482962913054878 0
-0.2500000006355843 0.4330127015252646 0
-0.3535533914210651 0.3535533897654825 0
-0.4330127022846476 0.2499999993202944 0
-0.4829629132495629 0.1294095221592876 0
1 11 0 4
57
58
59
60
-5 -1.999999999999999 0
-5 -1.499999999999999 0
-5 -0.9999999999999991 0
-5 -0.4999999999999996 0
1 12 0 33
61
62
63
64
65
66
67
68
69
70
71
72
73
74
75
76
77
78
79
80
81
82
83
84
85
86
87
88
89
90
91
92
93
14.41176470588221 -2.5 0
13.82352941176442 -2.5 0
13.23529411764663 -2.5 0
12.64705882352884 -2.5 0
12.05882352941105 -2.5 0
11.47058823529325 -2.5 0
10.88235294117546 -2.5 0
10.29411764705767 -2.5 0
9.705882352939881 -2.5 0
9.117647058822094 -2.5 0
8.529411764704303 -2.5 0
7.941176470586982 -2.5 0
7.352941176471806 -2.5 0
6.764705882355791 -2.5 0
6.176470588238001 -2.5 0
5.588235294120212 -2.5 0
5.000000000002421 -2.5 0
4.411764705884632 -2.5 0
3.823529411766843 -2.5 0
3.235294117649053 -2.5 0
2.647058823531264 -2.5 0
2.058823529413477 -2.5 0
1.470588235295686 -2.5 0
0.8823529411778956 -2.5 0
0.294117647060105 -2.5 0
-0.2941176470576838 -2.5 0
-0.8823529411754727 -2.5 0
-1.470588235293263 -2.5 0
-2.05882352941105 -2.5 0
-2.647058823528841 -2.5 0
-3.235294117646632 -2.5 0
-3.823529411764419 -2.5 0
-4.411764705882209 -2.5 0
1 13 0 4
94
95
96
97
15 -0.4999999999992064 0
15 -0.9999999999977549 0
15 -1.49999999999848 0
15 -1.99999999999924 0
1 14 0 5
98
99
100
101
102
0.1294095228858618 0.482962913054878 0
0.2500000006355843 0.4330127015252646 0
0.3535533914210651 0.3535533897654825 0
0.4330127022846476 0.2499999993202944 0
0.4829629132495629 0.1294095221592876 0
1 15 0 5
103
104
105
106
107
0.1294095228858618 -0.482962913054878 0
0.2500000006355843 -0.4330127015252646 0
0.3535533914210651 -0.3535533897654825 0
0.4330127022846476 -0.2499999993202944 0
0.4829629132495629 -0.1294095221592876 0
1 16 0 5
108
109
110
111
112
-0.1294095228858618 -0.482962913054878 0
-0.2500000006355843 -0.4330127015252646 0
-0.3535533914210651 -0.3535533897654825 0
-0.4330127022846476 -0.2499999993202944 0
-0.4829629132495629 -0.1294095221592876 0
1 17 0 14
113
114
115
116
117
118
119
120
121
122
123
124
125
126
-4.457291951324896 0 0
-3.96476349231064 0 0
-3.517774785174271 0 0
-3.112115324251706 0 0
-2.743963683928982 0 0
-2.409851847633199 0 0
-2.106632454138744 0 0
-1.831449107975259 0 0
-1.581709662643809 0 0
-1.355061385984459 0 0
-1.149369349736715 0 0
-0.962695897330673 0 0
-0.7932825114082931 0 0
-0.639533322555577 0 0
1 18 0 45
127
128
129
130
131
132
133
134
135
136
137
138
139
140
141
142
143
144
145
146
147
148
149
150
151
152
153
154
155
156
157
158
159
160
161
162
163
164
165
166
167
168
169
170
171
0.6418459944563027 0 0
0.7882512475145421 0 0
0.939362324862598 0 0
1.095330475022548 0 0
1.256311826490419 0 0
1.422467507246232 0 0
1.593963829713731 0 0
1.770972478698888 0 0
1.95367064676175 0 0
2.142241126474723 0 0
2.336872739478361 0 0
2.537760285297596 0 0
2.745104853450866 0 0
2.959113964201664 0 0
3.180001829795248 0 0
3.407989594207881 0 0
3.643305454280771 0 0
3.886184920775517 0 0
4.136871162599546 0 0
4.395615023209945 0 0
4.662675578584704 0 0
4.938320108938161 0 0
5.222824501001461 0 0
5.516473560770732 0 0
5.81956124718458 0 0
6.13239086964164 0 0
6.455275645181207 0 0
6.788538686309069 0 0
7.132513624131437 0 0
7.487544806832693 0 0
7.853987564668667 0 0
8.232208588108589 0 0
8.622586634068158 0 0
9.025512322317399 0 0
9.441389021529378 0 0
9.87063297826926 0 0
10.31367399485313 0 0
10.77095540860766 0 0
11.24293491936829 0 0
11.73008501153463 0 0
12.23289330074464 0 0
12.75186300646022 0 0
13.28751377962895 0 0
13.84038164357935 0 0
14.41102000454146 0 0
2 1 0 317
172
173
174
175
176
177
178
179
180
181
182
183
184
185
186
187
188
189
190
191
192
193
194
195
196
197
198
199
200
201
202
203
204
205
206
207
208
209
210
211
212
213
214
215
216
217
218
219
220
221
222
223
224
225
226
227
228
229
230
231
232
233
234
235
236
237
238
239
240
241
242
243
244
245
246
247
248
249
250
251
252
253
254
255
256
257
258
259
260
261
262
263
264
265
266
267
268
269
270
271
272
273
274
275
276
277
278
279
280
281
282
283
284
285
286
287
288
289
290
291
292
293
294
295
296
297
298
299
300
301
302
303
304
305
306
307
308
309
310
311
312
313
314
315
316
317
318
319
320
321
322
323
324
325
326
327
328
329
330
331
332
333
334
335
336
337
338
339
340
341
342
343
344
345
346
347
348
349
350
351
352
353
354
355
356
357
358
359
360
361
362
363
364
365
366
367
368
369
370
371
372
373
374
375
376
377
378
379
380
381
382
383
384
385
386
387
388
389
390
391
392
393
394
395
396
397
398
399
400
401
402
403
404
405
406
407
408
409
410
411
412
413
414
415
416
417
418
419
420
421
422
423
424
425
426
427
428
429
430
431
432
433
434
435
436
437
438
439
440
441
442
443
444
445
446
447
448
449
450
451
452
453
454
455
456
457
458
459
460
461
462
463
464
465
466
467
468
469
470
471
472
473
474
475
476
477
478
479
480
481
482
483
484
485
486
487
488
1.175821150756484 0.1372431600632551 0
1.679655274449261 0.171861561691997 0
2.239556932976542 0.1659313735379722 0
2.85835158128491 0.2086398790655014 0
-0.4918695412638437 0.3659968826708951 0
-1.265432078973912 0.1796689160193998 0
0.4829629136263979 0.3705904763179557 0
0.2322899180975146 0.560881901654386 0
-0.2381847448726746 0.5607597558202869 0
3.550450798578938 0.1920440709327861 0
4.293465103725727 0.219860226221567 0
-1.969040781057001 0.2272982362300277 0
5.091315166788334 0.2547688864348054 0
5.975003166528825 0.2110526917971024 0
6.960526155220252 0.2932526470892647 0
-2.933854655717358 0.3186302856020959 0
-3.751338712992141 0.3790371332171898 0
8.043098076388626 0.3224488759315526 0
1.223619024950501 1.976855270312787 0
9.212473734748956 0.3667393673945746 0
10.06383905884678 0.4093728698036762 0
11.01702007015309 0.487151379451123 0
0.8591369161931407 0.1329809656691236 0
2.273415182529115 1.991464951302404 0
-1.245810147315692 2.047294059221648 0
-0.8800942222340284 0.1419927598303172 0
3.535234617247008 1.979139484450795 0
-2.327996665315426 2.072906291139978 0
11.98148915613963 0.4286645534806239 0
4.675484726691666 2.029586770123629 0
14.65627950708436 1.24943963673739 0
13.05457183945179 0.4700118267582011 0
6.485963631124817 1.975864818932592 0
0.07891019683456557 2.003417896498892 0
7.647896417311712 1.99879255590296 0
8.8235294117632 1.990573291891587 0
-3.526761567353208 2.005056745032888 0
10.66912131634425 1.929882060578529 0
12.36724489392774 1.990531249982011 0
13.53029614550218 1.997623399867294 0
-4.581429197595059 1.245986685788228 0
14.14367054510908 0.4224691899492559 0
0.3691682832778692 0.4811114330693722 0
0.5135479194548207 0.5300262011082297 0
0.6367638691845281 0.4118070641243654 0
0.6876378909357277 0.5757814307737186 0
0.5377040624785193 0.713083441558481 0
0.7382869140732757 0.7780424390731159 0
0.5665121238145423 0.9246615028107339 0
0.8970405954086003 0.6195960832905579 0
0.9591345692540042 0.8494036911299917 0
1.135830894205519 0.6719580517496938 0
1.204344802180271 0.9253853133977392 0
1.401915784654795 0.7324661666526797 0
1.474031211661657 1.007414242872521 0
1.685755736645771 0.7992039552952789 0
1.760002883747755 1.092125203762739 0
1.99587519365956 0.8724617256652626 0
1.003331705132049 1.11436631400422 0
2.077742030504161 1.193806341230127 0
2.325140203788941 0.9530728516455353 0
1.847571760305933 1.419194364051731 0
1.880357508870856 0.5543266348386585 0
2.416681060073518 1.292021373649818 0
2.682332246272952 1.040641818173392 0
2.783771125437721 1.440004875581697 0
3.059985036203147 1.140991484317326 0
2.570355165549485 0.7106199233834133 0
1.326167417328309 0.4916178190673859 0
0.3637335056294496 0.8447316374190927 0
0.3808388525278437 1.090982621399708 0
0.12680885989202 0.9570102312226202 0
0.1665270003953173 1.272411689524599 0
-0.09400707996948 1.155649392309648 0
0.4509793472592012 1.377738073339833 0
-0.1402856256493187 0.9085364084683751 0
-0.3532709014097584 1.0516127356919 0
-0.3313186768584899 1.343861864376233 0
-0.6035307366762444 1.196985441992787 0
-0.599053426103885 0.9269483322000311 0
-0.8671463306037663 1.049566730643122 0
-0.8280515193247856 0.7405190839607876 0
-1.122040152387393 0.8414463431298561 0
-1.141297639748017 1.212169800573564 0
-1.432890528923674 1.034194016784192 0
-1.427227953180479 0.696039403990255 0
-1.732210098035748 0.8313068501421697 0
-1.756388417564868 1.211567155783544 0
-2.075201939082643 0.9782127509789635 0
-0.5888681383322698 1.535357657928907 0
-0.3770083720141416 0.4775553759997991 0
-0.541587124455413 0.5105484291298334 0
-0.647434256945119 0.3712841753790354 0
-0.3756863942621861 0.6371059390415679 0
0.07921475406534589 0.6023171775254583 0
-0.07945931154389077 0.603553390838219 0
-2.103011319717602 1.380820780488088 0
-2.445947863021827 1.152578009778143 0
-2.402524013291109 0.7285466993111112 0
-2.786166570085683 0.91680396079252 0
-2.847606172398466 1.370430982503413 0
-3.190340658853377 1.056496782121392 0
-1.76143020735914 1.613855939491477 0
0.5823097929051315 0.237907500907729 0
1.764157759072538 2.060872185917781 0
0.7565519668165444 0.2701938313746084 0
0.6461691140266025 2.047104992577184 0
-1.713460349610594 0.48979219668351 0
3.197279404696376 1.553425703641607 0
3.446937545451267 1.235054864682544 0
3.321025020472661 0.8666812018292263 0
3.697544375678871 0.9483865336811037 0
3.827886457907051 1.298443738207121 0
4.070398411388575 1.010470993935304 0
3.925035440020425 0.6872032713790182 0
4.315595338336369 0.7387821350323691 0
4.448117673708095 1.063753264462532 0
4.68860575085098 0.7899856490133664 0
4.84243091711322 1.131767377831037 0
5.079419832865042 0.8448278625556174 0
5.237010990028553 1.209722649559875 0
5.486072312156144 0.9002605473851535 0
5.644767352129479 1.276905726130765 0
5.915696011706983 0.893509459057608 0
5.397298912176916 1.608333584997546 0
6.065198744791727 1.324487564460219 0
6.344966913942725 1.000328839925712 0
2.940311395438989 0.7382194315151421 0
3.217973446273293 0.502360867304454 0
3.54308090764512 0.6008837583592924 0
2.230350903004976 0.606795138545594 0
2.484552510948732 0.4136884235107562 0
1.575074388297199 0.5363991125921501 0
0.8587057808505311 1.620266368451335 0
1.311940257994741 1.549504769732199 0
2.746643762482726 0.4615182521329574 0
6.470309017445274 1.43050054730706 0
6.777388248124813 1.07340465711395 0
6.92303532228938 1.527788826941275 0
7.22631527730735 1.126848012160881 0
6.607287266208772 0.6243675537185712 0
1.485950555158698 0.3024656355793395 0
1.0653498945991 0.4350931648903002 0
4.530149993005903 0.4492354371123973 0
4.141691179503637 2.03930139811914 0
2.881484917764785 1.944325167339226 0
7.059802343735108 0.6955727993790772 0
7.479936301299723 0.7241890445450094 0
7.68759923693434 1.141837498847134 0
6.224599300739746 0.663014944180856 0
5.335271303741601 0.5367474233824054 0
5.673254017202241 0.6223761087234315 0
-0.4623600440119598 2.006880019954342 0
-2.90428009387162 1.934328625739872 0
4.42923771796027 1.6565708111684 0
3.761694465490358 0.3881887573681924 0
7.89978925671964 0.7391045949121785 0
8.136431689953849 1.158295491214537 0
8.377972078458104 0.7735180018277211 0
8.599647009521579 1.173793951343751 0
8.842123043133672 0.781403536783839 0
9.067636861499796 1.193462198585967 0
8.379901957430409 1.579063452267274 0
0.8309842979321296 0.4347434161740408 0
2.098598833751835 0.3974664482756195 0
1.86885217139883 0.3053002199769234 0
-0.7205038506657889 0.1396770682387838 0
-1.422190679548817 0.3973532678283058 0
-1.169533037615881 0.5599885679817176 0
-0.9147126008096049 0.4707444954628453 0
-2.540169216868223 0.3398080069500655 0
-4.226596757088358 0.4566480007513656 0
-3.896749304175154 0.8030221159554741 0
5.962439683768921 2.046198617680847 0
-1.685045354126915 0.2235543724990483 0
-2.049329401977943 0.5660891561867307 0
12.9449188023761 1.998562248962627 0
12.65738064370885 1.50334271259854 0
12.09851116647601 1.489639659437217 0
12.34474601490274 0.9907115906542803 0
11.80322683062045 0.9748147075767748 0
11.54681817351408 1.463604012539664 0
11.27151014270019 0.9594162984604913 0
11.00730326723902 1.444999391200054 0
10.75554348581742 0.9570120620414168 0
10.44303273502507 1.36862745807827 0
10.11726573672052 1.788720715970273 0
9.939220270617826 1.24715661449695 0
9.638972820308297 1.645444879996586 0
12.86005060463928 0.9688207166343235 0
11.24615110059861 1.945487950502734 0
-4.144887821488272 1.989101531969377 0
-3.795532718321998 1.55345003017661 0
-3.311770550651016 1.51178711680601 0
13.58328477825372 0.4711129156222948 0
13.94123471087982 0.8856426091043672 0
-4.617214038763493 0.7490541669137247 0
13.19978148347131 1.481904073904264 0
-1.058954347821124 0.1561113932981936 0
14.13238557189826 1.951631665719386 0
-0.5560097768246444 0.2475841726304518 0
7.103713058221941 2.016490273434579 0
-0.7991678315283804 0.2852693931150859 0
-3.32959260899614 0.3602891391554904 0
0.2008816200844302 1.591598071562107 0
13.72227235729903 1.412194250219511 0
12.53760232038972 0.4763681145879047 0
-1.463744315700883 0.1671329064044279 0
-2.225265442800547 0.2732861743602953 0
8.824049478192785 0.3435105933709435 0
0.9403628974192815 0.2894428588319286 0
10.51683760411188 0.4483134154908174 0
1.01660328229426 0.1355813551236604 0
11.50771102175271 0.4750078231615021 0
7.679064203565234 0.3478187296996711 0
-4.598037042200643 1.731296416316686 0
6.621907165745142 0.2841203389358442 0
4.920876648502215 0.5184272423334025 0
9.644675165249566 0.3691352274384016 0
9.34827522028181 0.7657562121927637 0
5.664346482963269 0.3060349586776619 0
8.427397611088374 0.3311542870961954 0
3.995913351279444 0.2061275813762871 0
7.299897905797406 0.3434722034521704 0
14.50166691452905 0.8074102285018454 0
14.58571745532228 1.702495210272249 0
6.288063845355607 0.3021963827508534 0
0.3680139054690574 0.6408406456182849 0
3.305079196878131 0.2127559493893764 0
2.634954917642134 0.2090429548455321 0
1.350475678771437 0.1456675895921874 0
5.368711185240269 0.2413975195032008 0
11.79802284987012 1.981543812076938 0
2.027540212349 0.1701012352259229 0
0.1950101571922312 0.7249927675772432 0
3.084831353589868 0.2240019518884278 0
7.414895482610778 1.558002663915301 0
2.419187533523467 0.1897933467708717 0
0.7150486209854224 0.1248164515100747 0
10.23434505289012 0.8509928179299504 0
-3.492126963073332 0.7343721468392953 0
-1.4445583786802 1.405963323789123 0
-3.081533414827633 0.6605646325673531 0
-0.2536330304608447 1.675799650938157 0
4.778747132786106 0.2378441165828575 0
1.254087364496807 0.2943991157544912 0
-0.001254247852419719 0.7498010526226376 0
7.902372366032354 1.579541246250432 0
-0.7264767407557433 0.5252828753697427 0
-2.453917717336363 1.609015099146199 0
-0.1962485846158151 0.7161151579841639 0
4.910537488420624 1.57898218281941 0
8.147509411953042 2.041255815355385 0
-1.125387911388449 1.597994973588797 0
9.323240248034733 2.041682911458814 0
5.18173630121981 2.05545669216487 0
1.860138156731546 0.1294526033789686 0
2.981600101906252 0.4226941776740271 0
4.132519267557375 0.4532123329975974 0
-3.608179406298077 1.147414379989101 0
-1.131475556710907 0.3402086080204188 0
-1.770987657359117 2.033436662677183 0
-0.5689127314027356 0.6962231768026432 0
-0.3722429439072831 0.8227569583647801 0
1.50699202604276 0.128541434167943 0
1.541165798138487 1.31507575334812 0
9.504701882544534 1.1731657282102 0
0.7713209771484035 1.015560130721262 0
0.791932290293529 1.276578326553861 0
1.090444917913187 0.2583519309327271 0
2.172862711157738 1.548925861754133 0
2.498341153262956 1.646241156398081 0
1.265506530772336 1.181978258754915 0
-0.9580305954961036 0.2773850075320508 0
-0.8685058608134035 1.337314630491604 0
3.593009923505129 1.558775081666429 0
4.532130566262476 0.1813879559833644 0
8.813746596243968 1.497144073929808 0
13.39353262899916 0.9482810653738266 0
-0.06231003336181343 1.407864133742148 0
1.680386299613908 0.3513451378864149 0
3.423023623838075 0.3907169294392858 0
-0.5997791343759734 0.1169110854839323 0
-0.8622141738395409 1.837473556864216 0
0.5913973523569387 0.1037068950434112 0
-2.752439600607687 0.5855327444363601 0
3.767509798081005 0.1572720819354531 0
9.789176108405105 0.8025965783453236 0
0.5126431725898585 1.703018486372508 0
-3.961018971666842 1.187562264187716 0
-4.231456056272886 1.469500146535375 0
5.798405997206411 1.654784686470452 0
-4.660220549435349 0.341140433533018 0
1.046283313008637 1.348538807499306 0
3.966250450665365 1.643831768199538 0
6.177520581747125 1.712017297921023 0
2.28142781479744 0.3500973287309698 0
14.22540137751265 1.309772528740338 0
14.62306069942453 0.3471219800315715 0
9.751391042927327 2.073115834282824 0
-4.630937913914225 2.144079589657212 0
4.203869128349506 1.340073054460097 0
14.62597354662055 2.130825375198175 0
-1.460482222336374 1.744641978012454 0
-2.08346871341753 1.742006954588585 0
-2.304322018734455 0.4769325092020506 0
9.195304636732422 1.59024551401216 0
1.923425080270748 1.750826983892638 0
4.610562853753935 1.361437393890516 0
-4.262386622810958 0.9472970273605865 0
-0.6758653324661854 0.2498529982891204 0
0.5923167182087039 1.13710413096508 0
1.601979946788825 1.678721554542542 0
5.571388137805354 1.966892998751177 0
8.61804241886934 0.5613737418199483 0
-1.008584327534416 0.6531746226338015 0
5.956827137416111 0.4996974241979189 0
2 19 0 317
489
490
491
492
493
494
495
496
497
498
499
500
501
502
503
504
505
506
507
508
509
510
511
512
513
514
515
516
517
518
519
520
521
522
523
524
525
526
527
528
529
530
531
532
533
534
535
536
537
538
539
540
541
542
543
544
545
546
547
548
549
550
551
552
553
554
555
556
557
558
559
560
561
562
563
564
565
566
567
568
569
570
571
572
573
574
575
576
577
578
579
580
581
582
583
584
585
586
587
588
589
590
591
592
593
594
595
596
597
598
599
600
601
602
603
604
605
606
607
608
609
610
611
612
613
614
615
616
617
618
619
620
621
622
623
624
625
626
627
628
629
630
631
632
633
634
635
636
637
638
639
640
641
642
643
644
645
646
647
648
649
650
651
652
653
654
655
656
657
658
659
660
661
662
663
664
665
666
667
668
669
670
671
672
673
674
675
676
677
678
679
680
681
682
683
684
685
686
687
688
689
690
691
692
693
694
695
696
697
698
699
700
701
702
703
704
705
706
707
708
709
710
711
712
713
714
715
716
717
718
719
720
721
722
723
724
725
726
727
728
729
730
731
732
733
734
735
736
737
738
739
740
741
742
743
744
745
746
747
748
749
750
751
752
753
754
755
756
757
758
759
760
761
762
763
764
765
766
767
768
769
770
771
772
773
774
775
776
777
778
779
780
781
782
783
784
785
786
787
788
789
790
791
792
793
794
795
796
797
798
799
800
801
802
803
804
805
1.175821150756484 -0.1372431600632551 0
1.679655274449261 -0.1718615616919978 0
2.239556932976542 -0.1659313735379722 0
2.858351581284911 -0.2086398790655031 0
-0.4918695412638436 -0.3659968826708951 0
-1.265432078973912 -0.1796689160193998 0
0.4829629136263979 -0.3705904763179557 0
0.2322899180975148 -0.560881901654386 0
-0.2381847448726746 -0.5607597558202869 0
3.550450798578939 -0.1920440709327866 0
4.293465103725726 -0.2198602262215676 0
-1.969040781057001 -0.2272982362300277 0
5.091315166788333 -0.2547688864348057 0
5.975003166528825 -0.2110526917971027 0
6.960526155220252 -0.2932526470892647 0
-2.933854655717358 -0.3186302856020961 0
-3.751338712992141 -0.3790371332171898 0
8.043098076388626 -0.3224488759315526 0
1.223619024950501 -1.976855270312787 0
9.212473734748954 -0.3667393673945676 0
10.06383905884678 -0.4093728698036762 0
11.01702007015309 -0.487151379451123 0
0.8591369161931407 -0.1329809656691236 0
2.273415182529112 -1.991464951302407 0
-1.245810147315692 -2.047294059221648 0
-0.8800942222340284 -0.1419927598303172 0
3.535234617247008 -1.979139484450797 0
-2.327996665315425 -2.072906291139979 0
11.98148915613963 -0.4286645534806239 0
4.675484726691669 -2.029586770123629 0
14.65627950708436 -1.24943963673739 0
13.05457183945179 -0.4700118267582011 0
6.485963631124818 -1.975864818932586 0
0.07891019683456489 -2.003417896498892 0
7.647896417311713 -1.998792555902953 0
8.8235294117632 -1.990573291891587 0
-3.526761567353209 -2.005056745032889 0
10.66912131634425 -1.929882060578529 0
12.36724489392774 -1.990531249982011 0
13.53029614550218 -1.997623399867294 0
-4.581429197595059 -1.245986685788228 0
14.14367054510908 -0.4224691899492559 0
0.3691682832778692 -0.4811114330693722 0
0.5135479194548206 -0.5300262011082297 0
0.636763869184528 -0.4118070641243655 0
0.6876378909357277 -0.5757814307737187 0
0.537704062478519 -0.7130834415584811 0
0.7382869140732751 -0.7780424390731163 0
0.5665121238145414 -0.9246615028107341 0
0.8970405954086 -0.6195960832905585 0
0.9591345692540039 -0.8494036911299926 0
1.135830894205519 -0.6719580517496946 0
1.20434480218027 -0.9253853133977407 0
1.401915784654795 -0.7324661666526817 0
1.474031211661655 -1.007414242872524 0
1.68575573664577 -0.7992039552952823 0
1.760002883747754 -1.092125203762744 0
1.99587519365956 -0.8724617256652675 0
1.003331705132048 -1.114366314004221 0
2.077742030504159 -1.193806341230134 0
2.325140203788941 -0.9530728516455418 0
1.847571760305931 -1.419194364051736 0
1.880357508870857 -0.5543266348386617 0
2.416681060073516 -1.292021373649826 0
2.682332246272952 -1.0406418181734 0
2.783771125437719 -1.440004875581704 0
3.059985036203147 -1.140991484317336 0
2.570355165549486 -0.7106199233834203 0
1.326167417328309 -0.4916178190673873 0
0.3637335056294491 -0.8447316374190926 0
0.3808388525278426 -1.090982621399708 0
0.1268088598920192 -0.9570102312226197 0
0.1665270003953159 -1.272411689524599 0
-0.09400707996948118 -1.155649392309648 0
0.4509793472591996 -1.377738073339833 0
-0.1402856256493193 -0.908536408468375 0
-0.3532709014097593 -1.0516127356919 0
-0.3313186768584908 -1.343861864376232 0
-0.6035307366762452 -1.196985441992787 0
-0.5990534261038858 -0.9269483322000314 0
-0.8671463306037672 -1.049566730643123 0
-0.8280515193247864 -0.7405190839607877 0
-1.122040152387394 -0.8414463431298568 0
-1.141297639748018 -1.212169800573565 0
-1.432890528923676 -1.034194016784194 0
-1.427227953180481 -0.696039403990256 0
-1.73221009803575 -0.8313068501421714 0
-1.756388417564868 -1.211567155783547 0
-2.075201939082644 -0.9782127509789655 0
-0.5888681383322703 -1.535357657928907 0
-0.3770083720141416 -0.4775553759997991 0
-0.5415871244554131 -0.5105484291298334 0
-0.6474342569451188 -0.3712841753790355 0
-0.3756863942621863 -0.6371059390415679 0
0.07921475406534592 -0.6023171775254582 0
-0.07945931154389077 -0.603553390838219 0
-2.103011319717602 -1.380820780488091 0
-2.445947863021829 -1.152578009778147 0
-2.402524013291111 -0.7285466993111136 0
-2.786166570085685 -0.9168039607925222 0
-2.847606172398468 -1.370430982503416 0
-3.19034065885338 -1.056496782121395 0
-1.761430207359139 -1.613855939491479 0
0.5823097929051315 -0.2379075009077291 0
1.764157759072536 -2.060872185917781 0
0.7565519668165444 -0.2701938313746085 0
0.646169114026602 -2.047104992577184 0
-1.713460349610596 -0.4897921966835105 0
3.197279404696374 -1.553425703641614 0
3.446937545451267 -1.235054864682552 0
3.321025020472663 -0.8666812018292359 0
3.697544375678874 -0.948386533681113 0
3.827886457907053 -1.298443738207128 0
4.070398411388577 -1.010470993935311 0
3.925035440020427 -0.6872032713790248 0
4.315595338336371 -0.7387821350323741 0
4.448117673708099 -1.063753264462537 0
4.688605750850983 -0.7899856490133688 0
4.842430917113226 -1.131767377831039 0
5.079419832865044 -0.8448278625556158 0
5.237010990028562 -1.209722649559869 0
5.486072312156146 -0.9002605473851428 0
5.644767352129491 -1.27690572613075 0
5.915696011706984 -0.8935094590575933 0
5.397298912176927 -1.60833358499754 0
6.065198744791735 -1.324487564460199 0
6.344966913942726 -1.000328839925687 0
2.94031139543899 -0.7382194315151496 0
3.217973446273295 -0.5023608673044605 0
3.543080907645124 -0.6008837583593039 0
2.230350903004977 -0.6067951385455984 0
2.484552510948733 -0.4136884235107597 0
1.5750743882972 -0.5363991125921521 0
0.8587057808505303 -1.620266368451335 0
1.311940257994741 -1.5495047697322 0
2.746643762482729 -0.4615182521329639 0
6.470309017445278 -1.430500547307034 0
6.777388248124812 -1.073404657113909 0
6.923035322289376 -1.527788826941239 0
7.226315277307341 -1.126848012160828 0
6.607287266208766 -0.6243675537185495 0
1.485950555158699 -0.3024656355793411 0
1.0653498945991 -0.4350931648903005 0
4.530149993005903 -0.449235437112399 0
4.141691179503638 -2.039301398119142 0
2.881484917764783 -1.944325167339229 0
7.059802343735102 -0.6955727993790484 0
7.479936301299714 -0.7241890445449743 0
7.68759923693433 -1.141837498847074 0
6.224599300739745 -0.6630149441808439 0
5.335271303741592 -0.5367474233824046 0
5.673254017202241 -0.6223761087234264 0
-0.46236004401196 -2.006880019954342 0
-2.90428009387162 -1.934328625739874 0
4.429237717960275 -1.656570811168404 0
3.761694465490359 -0.3881887573681955 0
7.899789256719629 -0.7391045949121393 0
8.136431689953833 -1.158295491214473 0
8.377972078458075 -0.7735180018276525 0
8.599647009521547 -1.173793951343692 0
8.842123043133643 -0.7814035367837804 0
9.067636861499755 -1.193462198585911 0
8.379901957430391 -1.579063452267216 0
0.8309842979321296 -0.434743416174041 0
2.098598833751836 -0.3974664482756217 0
1.86885217139883 -0.3053002199769251 0
-0.7205038506657889 -0.1396770682387838 0
-1.422190679548819 -0.397353267828306 0
-1.169533037615882 -0.5599885679817178 0
-0.9147126008096057 -0.4707444954628451 0
-2.540169216868224 -0.3398080069500662 0
-4.226596757088358 -0.4566480007513654 0
-3.896749304175155 -0.803022115955474 0
5.962439683768926 -2.046198617680841 0
-1.685045354126915 -0.2235543724990483 0
-2.049329401977945 -0.5660891561867315 0
12.9449188023761 -1.998562248962627 0
12.65738064370885 -1.50334271259854 0
12.09851116647601 -1.489639659437217 0
12.34474601490274 -0.9907115906542803 0
11.80322683062045 -0.9748147075767748 0
11.54681817351408 -1.463604012539664 0
11.27151014270019 -0.9594162984604913 0
11.00730326723902 -1.444999391200054 0
10.75554348581742 -0.9570120620414168 0
10.44303273502507 -1.36862745807827 0
10.11726573672053 -1.788720715970273 0
9.939220270617819 -1.247156614496951 0
9.638972820308288 -1.645444879996583 0
12.86005060463928 -0.9688207166343235 0
11.24615110059861 -1.945487950502734 0
-4.144887821488272 -1.989101531969377 0
-3.795532718322001 -1.55345003017661 0
-3.311770550651017 -1.511787116806011 0
13.58328477825372 -0.4711129156222948 0
13.94123471087982 -0.8856426091043672 0
-4.617214038763493 -0.7490541669137245 0
13.19978148347131 -1.481904073904264 0
-1.058954347821124 -0.1561113932981936 0
14.13238557189826 -1.951631665719386 0
-0.5560097768246443 -0.2475841726304518 0
7.103713058221917 -2.016490273434565 0
-0.7991678315283804 -0.2852693931150859 0
-3.32959260899614 -0.3602891391554904 0
0.2008816200844278 -1.591598071562106 0
13.72227235729903 -1.412194250219511 0
12.53760232038972 -0.4763681145879047 0
-1.463744315700883 -0.1671329064044279 0
-2.225265442800548 -0.2732861743602957 0
8.824049478192785 -0.3435105933709435 0
0.9403628974192817 -0.2894428588319288 0
10.51683760411188 -0.4483134154908174 0
1.01660328229426 -0.1355813551236604 0
11.50771102175271 -0.4750078231615021 0
7.67906420356523 -0.3478187296996587 0
-4.598037042200644 -1.731296416316686 0
6.621907165745142 -0.2841203389358442 0
4.920876648502215 -0.5184272423334029 0
9.644675165249566 -0.3691352274384008 0
9.348275220281792 -0.7657562121927444 0
5.664346482963269 -0.3060349586776613 0
8.427397611088374 -0.3311542870961954 0
3.995913351279444 -0.2061275813762882 0
7.299897905797405 -0.3434722034521577 0
14.50166691452905 -0.8074102285018454 0
14.58571745532228 -1.702495210272249 0
6.288063845355606 -0.302196382750851 0
0.3680139054690574 -0.6408406456182849 0
3.305079196878131 -0.2127559493893775 0
2.634954917642135 -0.209042954845534 0
1.350475678771437 -0.1456675895921878 0
5.368711185240268 -0.2413975195032007 0
11.79802284987012 -1.981543812076938 0
2.027540212349 -0.1701012352259237 0
0.1950101571922311 -0.724992767577243 0
3.084831353589869 -0.2240019518884298 0
7.41489548261077 -1.558002663915262 0
2.419187533523468 -0.1897933467708729 0
0.7150486209854223 -0.1248164515100747 0
10.23434505289011 -0.8509928179299505 0
-3.492126963073332 -0.7343721468392955 0
-1.4445583786802 -1.405963323789126 0
-3.081533414827633 -0.6605646325673525 0
-0.2536330304608453 -1.675799650938156 0
4.778747132786106 -0.2378441165828578 0
1.254087364496807 -0.2943991157544912 0
-0.001254247852419891 -0.7498010526226373 0
7.902372366032351 -1.579541246250391 0
-0.7264767407557438 -0.5252828753697428 0
-2.453917717336364 -1.609015099146201 0
-0.1962485846158153 -0.7161151579841638 0
4.910537488420631 -1.578982182819409 0
8.147509411953076 -2.041255815355366 0
-1.125387911388448 -1.597994973588799 0
9.323240248034734 -2.041682911458814 0
5.18173630121982 -2.055456692164863 0
1.860138156731546 -0.1294526033789693 0
2.981600101906255 -0.4226941776740307 0
4.132519267557375 -0.4532123329976003 0
-3.608179406298079 -1.147414379989101 0
-1.131475556710908 -0.3402086080204189 0
-1.770987657359117 -2.033436662677184 0
-0.568912731402736 -0.6962231768026432 0
-0.3722429439072836 -0.8227569583647801 0
1.50699202604276 -0.1285414341679438 0
1.541165798138484 -1.315075753348122 0
9.504701882544493 -1.173165728210206 0
0.7713209771484031 -1.015560130721263 0
0.7919322902935282 -1.276578326553862 0
1.090444917913187 -0.2583519309327272 0
2.172862711157736 -1.548925861754137 0
2.498341153262952 -1.646241156398083 0
1.265506530772335 -1.181978258754916 0
-0.9580305954961036 -0.2773850075320508 0
-0.8685058608134038 -1.337314630491605 0
3.593009923505131 -1.558775081666435 0
4.532130566262476 -0.1813879559833649 0
8.813746596243943 -1.497144073929767 0
13.39353262899916 -0.9482810653738266 0
-0.06231003336181471 -1.407864133742148 0
1.680386299613909 -0.3513451378864164 0
3.423023623838075 -0.3907169294392868 0
-0.5997791343759734 -0.1169110854839323 0
-0.862214173839541 -1.837473556864217 0
0.5913973523569389 -0.1037068950434112 0
-2.752439600607687 -0.5855327444363612 0
3.767509798081006 -0.1572720819354541 0
9.789176108405094 -0.8025965783453214 0
0.5126431725898566 -1.703018486372508 0
-3.961018971666844 -1.187562264187716 0
-4.231456056272886 -1.469500146535375 0
5.798405997206418 -1.65478468647044 0
-4.660220549435349 -0.3411404335330179 0
1.046283313008636 -1.348538807499307 0
3.966250450665368 -1.643831768199542 0
6.177520581747135 -1.712017297921009 0
2.281427814797441 -0.3500973287309718 0
14.22540137751265 -1.309772528740338 0
14.62306069942453 -0.3471219800315715 0
9.751391042927334 -2.073115834282826 0
-4.630937913914225 -2.144079589657213 0
4.203869128349509 -1.340073054460102 0
14.62597354662055 -2.130825375198175 0
-1.460482222336374 -1.744641978012456 0
-2.083468713417529 -1.742006954588587 0
-2.304322018734457 -0.4769325092020518 0
9.195304636732402 -1.590245514012144 0
1.923425080270743 -1.750826983892639 0
4.610562853753938 -1.361437393890522 0
-4.262386622810958 -0.9472970273605861 0
-0.6758653324661854 -0.2498529982891205 0
0.5923167182087029 -1.13710413096508 0
1.601979946788822 -1.678721554542544 0
5.57138813780536 -1.966892998751171 0
8.618042418869329 -0.5613737418199105 0
-1.008584327534417 -0.6531746226338019 0
5.956827137416111 -0.4996974241979131 0
$EndNodes
$Elements
12 1610 1 1610
1 7 1 5
1 5 11 
2 11 12 
3 12 13 
4 13 14 
5 14 6 
1 8 1 34
6 6 15 
7 15 16 
8 16 17 
9 17 18 
10 18 19 
11 19 20 
12 20 21 
13 21 22 
14 22 23 
15 23 24 
16 24 25 
17 25 26 
18 26 27 
19 27 28 
20 28 29 
21 29 30 
22 30 31 
23 31 32 
24 32 33 
25 33 34 
26 34 35 
27 35 36 
28 36 37 
29 37 38 
30 38 39 
31 39 40 
32 40 41 
33 41 42 
34 42 43 
35 43 44 
36 44 45 
37 45 46 
38 46 47 
39 47 3 
1 9 1 5
40 3 48 
41 48 49 
42 49 50 
43 50 51 
44 51 4 
1 10 1 6
45 2 52 
46 52 53 
47 53 54 
48 54 55 
49 55 56 
50 56 1 
1 11 1 5
51 7 57 
52 57 58 
53 58 59 
54 59 60 
55 60 4 
1 12 1 34
56 8 61 
57 61 62 
58 62 63 
59 63 64 
60 64 65 
61 65 66 
62 66 67 
63 67 68 
64 68 69 
65 69 70 
66 70 71 
67 71 72 
68 72 73 
69 73 74 
70 74 75 
71 75 76 
72 76 77 
73 77 78 
74 78 79 
75 79 80 
76 80 81 
77 81 82 
78 82 83 
79 83 84 
80 84 85 
81 85 86 
82 86 87 
83 87 88 
84 88 89 
85 89 90 
86 90 91 
87 91 92 
88 92 93 
89 93 7 
1 13 1 5
90 5 94 
91 94 95 
92 95 96 
93 96 97 
94 97 8 
1 14 1 6
95 2 98 
96 98 99 
97 99 100 
98 100 101 
99 101 102 
100 102 9 
1 15 1 6
101 10 103 
102 103 104 
103 104 105 
104 105 106 
105 106 107 
106 107 9 
1 16 1 6
107 10 108 
108 108 109 
109 109 110 
110 110 111 
111 111 112 
112 112 1 
2 1 2 749
113 280 198 317 
114 367 396 469 
115 204 310 373 
116 325 272 421 
117 352 354 385 
118 367 213 396 
119 400 300 407 
120 204 308 310 
121 163 164 383 
122 193 354 356 
123 332 191 391 
124 277 194 382 
125 182 315 430 
126 397 371 469 
127 184 322 389 
128 361 351 378 
129 272 325 365 
130 377 369 450 
131 200 351 352 
132 278 205 460 
133 203 361 378 
134 237 280 317 
135 205 376 460 
136 314 221 335 
137 423 326 480 
138 200 352 385 
139 356 357 411 
140 351 200 378 
141 181 327 453 
142 367 377 450 
143 299 239 307 
144 406 243 418 
145 354 193 385 
146 388 312 398 
147 286 301 327 
148 286 283 301 
149 314 335 382 
150 279 183 346 
151 333 332 391 
152 237 317 443 
153 337 234 452 
154 371 377 469 
155 319 318 395 
156 312 186 318 
157 312 321 398 
158 39 205 278 
159 328 189 330 
160 186 312 388 
161 304 240 313 
162 209 355 362 
163 330 189 393 
164 229 234 302 
165 307 303 401 
166 358 22 471 
167 236 239 299 
168 328 319 386 
169 225 240 304 
170 322 291 389 
171 305 246 440 
172 315 287 430 
173 209 22 358 
174 374 264 420 
175 407 300 429 
176 21 209 362 
177 324 41 455 
178 234 304 452 
179 318 186 395 
180 191 332 381 
181 302 234 336 
182 258 260 347 
183 41 196 455 
184 334 207 424 
185 357 359 411 
186 260 270 347 
187 201 326 423 
188 253 420 434 
189 175 307 401 
190 192 163 383 
191 392 322 403 
192 183 279 347 
193 195 36 276 
194 386 319 395 
195 355 209 357 
196 339 177 432 
197 189 328 386 
198 190 306 484 
199 299 307 429 
200 243 247 418 
201 216 178 275 
202 190 278 305 
203 410 275 456 
204 195 276 479 
205 198 280 447 
206 216 275 277 
207 325 208 365 
208 198 34 317 
209 193 356 383 
210 327 301 453 
211 279 258 347 
212 323 322 392 
213 207 25 424 
214 376 415 451 
215 270 342 477 
216 53 180 262 
217 164 193 383 
218 239 302 303 
219 277 275 410 
220 254 257 340 
221 282 299 300 
222 201 316 326 
223 339 346 379 
224 20 21 362 
225 201 32 316 
226 240 223 314 
227 194 277 410 
228 234 227 304 
229 28 204 373 
230 239 232 302 
231 241 243 406 
232 276 190 484 
233 223 221 314 
234 335 277 382 
235 263 262 265 
236 190 38 278 
237 359 438 459 
238 232 229 302 
239 227 225 304 
240 282 238 299 
241 246 305 460 
242 373 310 408 
243 183 347 380 
244 238 236 299 
245 336 337 405 
246 383 356 411 
247 198 447 466 
248 190 305 306 
249 243 245 247 
250 251 253 434 
251 342 270 457 
252 341 374 420 
253 401 303 409 
254 173 313 436 
255 283 282 301 
256 37 190 276 
257 339 279 346 
258 39 40 205 
259 45 208 325 
260 174 336 405 
261 208 364 365 
262 315 182 448 
263 254 340 487 
264 300 299 429 
265 202 397 469 
266 37 38 190 
267 396 202 469 
268 199 325 421 
269 402 313 417 
270 316 198 466 
271 236 232 239 
272 285 283 286 
273 289 287 315 
274 229 227 234 
275 281 238 282 
276 341 432 445 
277 240 314 417 
278 298 295 321 
279 20 362 404 
280 225 223 240 
281 125 126 338 
282 33 198 316 
283 376 205 415 
284 340 339 432 
285 35 195 317 
286 313 240 417 
287 312 298 321 
288 115 116 375 
289 327 394 430 
290 239 303 307 
291 19 20 404 
292 41 42 196 
293 205 40 324 
294 35 36 195 
295 307 175 429 
296 347 270 477 
297 282 300 301 
298 177 339 379 
299 333 391 438 
300 309 298 312 
301 117 118 342 
302 300 400 453 
303 341 340 432 
304 33 34 198 
305 38 39 278 
306 199 44 325 
307 208 363 364 
308 201 423 427 
309 293 291 322 
310 204 29 345 
311 248 250 251 
312 196 42 433 
313 257 279 339 
314 43 44 199 
315 120 121 346 
316 324 261 415 
317 434 265 435 
318 22 23 471 
319 221 217 335 
320 257 258 279 
321 31 32 201 
322 285 286 287 
323 206 373 408 
324 382 194 384 
325 322 184 403 
326 311 318 319 
327 116 187 375 
328 281 282 283 
329 251 252 253 
330 357 358 359 
331 43 199 433 
332 295 293 323 
333 348 210 349 
334 28 29 204 
335 336 234 337 
336 309 312 318 
337 262 180 265 
338 36 37 276 
339 54 53 262 
340 317 195 443 
341 254 256 257 
342 357 209 358 
343 185 398 488 
344 248 251 435 
345 311 309 318 
346 18 210 348 
347 257 339 340 
348 26 27 206 
349 208 46 363 
350 196 433 475 
351 337 173 428 
352 293 322 323 
353 16 211 371 
354 34 35 317 
355 32 33 316 
356 348 349 369 
357 351 350 352 
358 169 170 366 
359 207 334 449 
360 291 289 389 
361 263 265 434 
362 45 46 208 
363 40 41 324 
364 349 350 351 
365 29 30 345 
366 349 361 369 
367 114 115 188 
368 327 181 458 
369 211 369 377 
370 405 337 428 
371 24 25 207 
372 203 169 366 
373 321 295 488 
374 170 213 366 
375 349 210 350 
376 303 302 468 
377 170 171 213 
378 114 188 343 
379 446 261 455 
380 313 173 452 
381 354 355 356 
382 44 45 325 
383 113 114 343 
384 260 269 270 
385 352 353 354 
386 21 22 209 
387 211 17 348 
388 365 364 431 
389 369 361 450 
390 253 341 420 
391 211 348 369 
392 15 16 371 
393 176 264 372 
394 343 188 344 
395 359 358 360 
396 371 211 377 
397 247 245 248 
398 46 47 363 
399 16 17 211 
400 18 19 210 
401 438 391 459 
402 286 327 430 
403 433 199 476 
404 273 412 414 
405 366 213 367 
406 1 56 454 
407 349 351 361 
408 17 18 348 
409 210 19 404 
410 178 101 275 
411 50 51 368 
412 423 296 427 
413 27 28 373 
414 251 434 435 
415 361 203 450 
416 206 27 373 
417 411 359 459 
418 126 1 454 
419 188 115 375 
420 352 350 353 
421 295 323 488 
422 320 319 328 
423 306 305 465 
424 356 355 357 
425 420 263 434 
426 168 169 203 
427 124 125 197 
428 289 315 389 
429 354 353 355 
430 329 328 330 
431 417 314 441 
432 197 125 338 
433 4 113 464 
434 212 50 368 
435 288 287 289 
436 331 330 332 
437 168 203 378 
438 166 167 200 
439 203 366 450 
440 102 9 456 
441 292 291 293 
442 205 324 415 
443 342 118 380 
444 173 337 452 
445 290 289 291 
446 412 375 414 
447 308 298 309 
448 310 309 311 
449 294 293 295 
450 9 127 456 
451 206 419 424 
452 116 117 187 
453 392 185 488 
454 128 129 194 
455 297 295 298 
456 284 283 285 
457 167 168 378 
458 164 165 193 
459 49 50 212 
460 380 347 477 
461 192 383 411 
462 257 256 258 
463 287 286 430 
464 214 215 399 
465 353 350 404 
466 162 163 192 
467 165 166 385 
468 270 269 271 
469 127 128 410 
470 261 324 455 
471 218 241 399 
472 398 321 488 
473 461 462 481 
474 368 343 481 
475 442 195 479 
476 123 124 370 
477 122 123 177 
478 119 120 183 
479 100 178 214 
480 55 176 372 
481 344 412 431 
482 30 31 427 
483 166 200 385 
484 160 161 191 
485 310 311 408 
486 237 236 238 
487 280 238 281 
488 187 117 342 
489 343 344 481 
490 346 121 379 
491 161 162 390 
492 159 160 381 
493 48 49 387 
494 425 446 455 
495 350 210 404 
496 336 174 468 
497 25 26 424 
498 265 180 422 
499 11 12 396 
500 118 119 380 
501 362 353 404 
502 157 158 189 
503 426 207 478 
504 311 319 320 
505 158 159 393 
506 419 334 424 
507 235 232 236 
508 308 204 467 
509 12 13 202 
510 251 250 252 
511 156 157 386 
512 389 315 416 
513 175 407 429 
514 23 24 426 
515 355 353 362 
516 462 212 481 
517 13 14 397 
518 200 167 378 
519 121 122 379 
520 231 229 232 
521 154 155 186 
522 129 130 384 
523 320 328 329 
524 49 212 387 
525 228 227 229 
526 331 332 333 
527 155 156 395 
528 153 154 388 
529 151 152 185 
530 128 194 410 
531 329 330 331 
532 226 225 227 
533 375 187 414 
534 150 151 392 
535 313 402 436 
536 152 153 398 
537 183 120 346 
538 214 178 215 
539 193 165 385 
540 130 131 172 
541 253 252 254 
542 148 149 184 
543 305 278 460 
544 241 242 243 
545 124 197 370 
546 162 192 390 
547 149 150 403 
548 179 99 214 
549 147 148 416 
550 145 146 182 
551 308 309 310 
552 302 336 468 
553 323 392 488 
554 171 5 470 
555 188 375 412 
556 217 216 335 
557 271 272 273 
558 144 145 394 
559 215 218 399 
560 344 188 412 
561 285 287 288 
562 224 223 225 
563 142 143 181 
564 191 161 390 
565 218 220 241 
566 131 132 402 
567 141 142 400 
568 292 293 294 
569 12 202 396 
570 160 191 381 
571 297 298 308 
572 30 427 485 
573 294 295 297 
574 273 365 431 
575 290 291 292 
576 139 140 175 
577 138 139 401 
578 135 136 405 
579 281 283 284 
580 140 141 407 
581 288 289 290 
582 194 129 384 
583 136 137 174 
584 159 381 393 
585 133 134 173 
586 177 123 370 
587 202 13 397 
588 137 138 409 
589 243 244 245 
590 216 277 335 
591 189 158 393 
592 51 4 464 
593 101 102 275 
594 179 399 406 
595 364 363 462 
596 100 101 178 
597 222 221 223 
598 191 390 391 
599 195 442 443 
600 157 189 386 
601 329 331 334 
602 26 206 424 
603 260 268 269 
604 98 179 266 
605 31 201 427 
606 247 248 435 
607 119 183 380 
608 215 178 216 
609 258 259 260 
610 271 269 272 
611 473 288 480 
612 47 3 472 
613 219 217 221 
614 156 386 395 
615 311 320 408 
616 345 30 485 
617 134 135 428 
618 273 272 365 
619 412 273 431 
620 180 52 267 
621 6 15 474 
622 130 172 384 
623 301 300 453 
624 186 155 395 
625 122 177 379 
626 184 389 416 
627 55 54 176 
628 399 241 406 
629 237 238 280 
630 197 338 374 
631 154 186 388 
632 338 126 454 
633 359 360 438 
634 271 273 414 
635 56 55 372 
636 153 388 398 
637 24 207 426 
638 179 214 399 
639 235 236 237 
640 132 133 436 
641 185 152 398 
642 151 185 392 
643 207 449 478 
644 206 408 419 
645 416 315 448 
646 270 271 457 
647 231 232 235 
648 265 422 435 
649 150 392 403 
650 374 341 445 
651 254 255 256 
652 267 418 422 
653 98 99 179 
654 53 52 180 
655 248 249 250 
656 304 313 452 
657 99 100 214 
658 184 149 403 
659 228 229 231 
660 340 341 487 
661 253 254 487 
662 204 345 467 
663 226 227 228 
664 342 380 477 
665 292 294 296 
666 148 184 416 
667 258 256 259 
668 2 266 267 
669 266 406 418 
670 269 268 421 
671 363 47 472 
672 172 131 402 
673 176 263 264 
674 224 225 226 
675 145 182 394 
676 260 259 268 
677 177 370 432 
678 5 11 470 
679 272 269 421 
680 268 259 274 
681 180 267 422 
682 341 253 487 
683 413 255 425 
684 280 281 447 
685 42 43 433 
686 344 431 461 
687 3 48 472 
688 142 181 400 
689 146 147 448 
690 363 387 462 
691 320 329 419 
692 14 6 474 
693 141 400 407 
694 2 98 266 
695 222 223 224 
696 266 179 406 
697 256 255 413 
698 387 363 472 
699 139 175 401 
700 175 140 407 
701 15 371 474 
702 138 401 409 
703 136 174 405 
704 329 334 419 
705 52 2 267 
706 147 416 448 
707 174 409 468 
708 454 372 482 
709 290 292 423 
710 174 137 409 
711 241 220 242 
712 213 171 470 
713 243 242 244 
714 343 368 464 
715 267 266 418 
716 402 132 436 
717 409 303 468 
718 135 405 428 
719 274 433 476 
720 176 54 262 
721 219 221 222 
722 182 146 448 
723 228 231 233 
724 172 402 417 
725 173 134 428 
726 259 256 413 
727 133 173 436 
728 408 320 419 
729 366 367 450 
730 254 252 255 
731 222 224 230 
732 437 306 444 
733 264 263 420 
734 382 384 441 
735 144 394 458 
736 422 247 435 
737 433 274 475 
738 444 306 465 
739 394 327 458 
740 326 316 466 
741 334 331 449 
742 248 245 249 
743 390 192 459 
744 215 216 217 
745 261 249 415 
746 285 288 473 
747 192 411 459 
748 23 426 471 
749 143 144 458 
750 447 284 466 
751 396 213 470 
752 250 249 261 
753 394 182 430 
754 181 143 458 
755 244 242 246 
756 215 217 218 
757 332 330 486 
758 275 102 456 
759 226 228 437 
760 274 259 413 
761 292 296 423 
762 360 358 471 
763 338 454 482 
764 331 333 449 
765 281 284 447 
766 218 219 220 
767 244 246 376 
768 218 217 219 
769 245 244 451 
770 368 51 464 
771 371 397 474 
772 377 367 469 
773 330 393 486 
774 212 368 481 
775 127 410 456 
776 113 343 464 
777 418 247 422 
778 425 255 446 
779 432 370 445 
780 297 308 467 
781 326 473 480 
782 176 262 263 
783 56 372 454 
784 360 426 478 
785 187 342 457 
786 414 187 457 
787 384 172 441 
788 296 294 463 
789 439 230 440 
790 228 233 437 
791 314 382 441 
792 370 197 445 
793 172 417 441 
794 426 360 471 
795 333 438 478 
796 235 237 443 
797 387 212 462 
798 391 390 459 
799 440 230 465 
800 250 261 446 
801 249 245 451 
802 415 249 451 
803 252 250 446 
804 231 235 442 
805 421 268 476 
806 222 230 439 
807 197 374 445 
808 294 297 463 
809 381 332 486 
810 290 423 480 
811 400 181 453 
812 244 376 451 
813 226 437 444 
814 224 226 444 
815 11 396 470 
816 233 231 442 
817 440 246 483 
818 48 387 472 
819 264 374 482 
820 219 222 439 
821 438 360 478 
822 230 224 444 
823 284 285 473 
824 376 246 460 
825 246 242 483 
826 372 264 482 
827 305 440 465 
828 397 14 474 
829 220 219 439 
830 271 414 457 
831 255 252 446 
832 442 235 443 
833 374 338 482 
834 413 425 475 
835 196 425 455 
836 393 381 486 
837 439 440 483 
838 288 290 480 
839 199 421 476 
840 427 296 485 
841 268 274 476 
842 296 463 485 
843 431 364 461 
844 230 444 465 
845 463 297 467 
846 461 364 462 
847 220 439 483 
848 242 220 483 
849 306 437 484 
850 274 413 475 
851 449 333 478 
852 425 196 475 
853 437 233 484 
854 466 284 473 
855 345 463 467 
856 233 442 479 
857 344 461 481 
858 463 345 485 
859 326 466 473 
860 479 276 484 
861 233 479 484 
2 19 2 749
862 597 515 634 
863 684 713 786 
864 521 627 690 
865 642 589 738 
866 669 671 702 
867 684 530 713 
868 717 617 724 
869 521 625 627 
870 163 164 700 
871 510 671 673 
872 649 508 708 
873 594 511 699 
874 499 632 747 
875 714 688 786 
876 501 639 706 
877 678 668 695 
878 589 642 682 
879 694 686 767 
880 517 668 669 
881 595 522 777 
882 520 678 695 
883 554 597 634 
884 522 693 777 
885 631 538 652 
886 740 643 797 
887 517 669 702 
888 673 674 728 
889 668 517 695 
890 498 644 770 
891 684 694 767 
892 616 556 624 
893 723 560 735 
894 671 510 702 
895 705 629 715 
896 603 618 644 
897 603 600 618 
898 631 652 699 
899 596 500 663 
900 650 649 708 
901 554 634 760 
902 654 551 769 
903 688 694 786 
904 636 635 712 
905 629 503 635 
906 629 638 715 
907 85 522 595 
908 645 506 647 
909 503 629 705 
910 621 557 630 
911 526 672 679 
912 647 506 710 
913 546 551 619 
914 624 620 718 
915 675 68 788 
916 553 556 616 
917 645 636 703 
918 542 557 621 
919 639 608 706 
920 622 563 757 
921 632 604 747 
922 526 68 675 
923 691 581 737 
924 724 617 746 
925 67 526 679 
926 641 87 772 
927 551 621 769 
928 635 503 712 
929 508 649 698 
930 619 551 653 
931 575 577 664 
932 87 513 772 
933 651 524 741 
934 674 676 728 
935 577 587 664 
936 518 643 740 
937 570 737 751 
938 492 624 718 
939 509 163 700 
940 709 639 720 
941 500 596 664 
942 512 82 593 
943 703 636 712 
944 672 526 674 
945 656 494 749 
946 506 645 703 
947 507 623 801 
948 616 624 746 
949 560 564 735 
950 533 495 592 
951 507 595 622 
952 727 592 773 
953 512 593 796 
954 515 597 764 
955 533 592 594 
956 642 525 682 
957 515 80 634 
958 510 673 700 
959 644 618 770 
960 596 575 664 
961 640 639 709 
962 524 71 741 
963 693 732 768 
964 587 659 794 
965 109 497 579 
966 164 510 700 
967 556 619 620 
968 594 592 727 
969 571 574 657 
970 599 616 617 
971 518 633 643 
972 656 663 696 
973 66 67 679 
974 518 78 633 
975 557 540 631 
976 511 594 727 
977 551 544 621 
978 74 521 690 
979 556 549 619 
980 558 560 723 
981 593 507 801 
982 540 538 631 
983 652 594 699 
984 580 579 582 
985 507 84 595 
986 676 755 776 
987 549 546 619 
988 544 542 621 
989 599 555 616 
990 563 622 777 
991 690 627 725 
992 500 664 697 
993 555 553 616 
994 653 654 722 
995 700 673 728 
996 515 764 783 
997 507 622 623 
998 560 562 564 
999 568 570 751 
1000 659 587 774 
1001 658 691 737 
1002 718 620 726 
1003 490 630 753 
1004 600 599 618 
1005 83 507 593 
1006 656 596 663 
1007 85 86 522 
1008 91 525 642 
1009 491 653 722 
1010 525 681 682 
1011 632 499 765 
1012 571 657 804 
1013 617 616 746 
1014 519 714 786 
1015 83 84 507 
1016 713 519 786 
1017 516 642 738 
1018 719 630 734 
1019 633 515 783 
1020 553 549 556 
1021 602 600 603 
1022 606 604 632 
1023 546 544 551 
1024 598 555 599 
1025 658 749 762 
1026 557 631 734 
1027 615 612 638 
1028 66 679 721 
1029 542 540 557 
1030 125 126 655 
1031 79 515 633 
1032 693 522 732 
1033 657 656 749 
1034 81 512 634 
1035 630 557 734 
1036 629 615 638 
1037 115 116 692 
1038 644 711 747 
1039 556 620 624 
1040 65 66 721 
1041 87 88 513 
1042 522 86 641 
1043 81 82 512 
1044 624 492 746 
1045 664 587 794 
1046 599 617 618 
1047 494 656 696 
1048 650 708 755 
1049 626 615 629 
1050 117 118 659 
1051 617 717 770 
1052 658 657 749 
1053 79 80 515 
1054 84 85 595 
1055 516 90 642 
1056 525 680 681 
1057 518 740 744 
1058 610 608 639 
1059 521 75 662 
1060 565 567 568 
1061 513 88 750 
1062 574 596 656 
1063 89 90 516 
1064 120 121 663 
1065 641 578 732 
1066 751 582 752 
1067 68 69 788 
1068 538 534 652 
1069 574 575 596 
1070 77 78 518 
1071 602 603 604 
1072 523 690 725 
1073 699 511 701 
1074 639 501 720 
1075 628 635 636 
1076 116 504 692 
1077 598 599 600 
1078 568 569 570 
1079 674 675 676 
1080 89 516 750 
1081 612 610 640 
1082 665 527 666 
1083 74 75 521 
1084 653 551 654 
1085 626 629 635 
1086 579 497 582 
1087 82 83 593 
1088 110 109 579 
1089 634 512 760 
1090 571 573 574 
1091 674 526 675 
1092 502 715 805 
1093 565 568 752 
1094 628 626 635 
1095 64 527 665 
1096 574 656 657 
1097 72 73 523 
1098 525 92 680 
1099 513 750 792 
1100 654 490 745 
1101 610 639 640 
1102 62 528 688 
1103 80 81 634 
1104 78 79 633 
1105 665 666 686 
1106 668 667 669 
1107 169 170 683 
1108 524 651 766 
1109 608 606 706 
1110 580 582 751 
1111 91 92 525 
1112 86 87 641 
1113 666 667 668 
1114 75 76 662 
1115 666 678 686 
1116 114 115 505 
1117 644 498 775 
1118 528 686 694 
1119 722 654 745 
1120 70 71 524 
1121 520 169 683 
1122 638 612 805 
1123 170 530 683 
1124 666 527 667 
1125 620 619 785 
1126 170 171 530 
1127 114 505 660 
1128 763 578 772 
1129 630 490 769 
1130 671 672 673 
1131 90 91 642 
1132 113 114 660 
1133 577 586 587 
1134 669 670 671 
1135 67 68 526 
1136 528 63 665 
1137 682 681 748 
1138 686 678 767 
1139 570 658 737 
1140 528 665 686 
1141 61 62 688 
1142 493 581 689 
1143 660 505 661 
1144 676 675 677 
1145 688 528 694 
1146 564 562 565 
1147 92 93 680 
1148 62 63 528 
1149 64 65 527 
1150 755 708 776 
1151 603 644 747 
1152 750 516 793 
1153 590 729 731 
1154 683 530 684 
1155 1 112 771 
1156 666 668 678 
1157 63 64 665 
1158 527 65 721 
1159 495 106 592 
1160 59 60 685 
1161 740 613 744 
1162 73 74 690 
1163 568 751 752 
1164 678 520 767 
1165 523 73 690 
1166 728 676 776 
1167 126 1 771 
1168 505 115 692 
1169 669 667 670 
1170 612 640 805 
1171 637 636 645 
1172 623 622 782 
1173 673 672 674 
1174 737 580 751 
1175 168 169 520 
1176 124 125 514 
1177 606 632 706 
1178 671 670 672 
1179 646 645 647 
1180 734 631 758 
1181 514 125 655 
1182 4 113 781 
1183 529 59 685 
1184 605 604 606 
1185 648 647 649 
1186 168 520 695 
1187 166 167 517 
1188 520 683 767 
1189 107 9 773 
1190 609 608 610 
1191 522 641 732 
1192 659 118 697 
1193 490 654 769 
1194 607 606 608 
1195 729 692 731 
1196 625 615 626 
1197 627 626 628 
1198 611 610 612 
1199 9 127 773 
1200 523 736 741 
1201 116 117 504 
1202 709 502 805 
1203 128 129 511 
1204 614 612 615 
1205 601 600 602 
1206 167 168 695 
1207 164 165 510 
1208 58 59 529 
1209 697 664 794 
1210 509 700 728 
1211 574 573 575 
1212 604 603 747 
1213 531 532 716 
1214 670 667 721 
1215 162 163 509 
1216 165 166 702 
1217 587 586 588 
1218 127 128 727 
1219 578 641 772 
1220 535 558 716 
1221 715 638 805 
1222 778 779 798 
1223 685 660 798 
1224 759 512 796 
1225 123 124 687 
1226 122 123 494 
1227 119 120 500 
1228 105 495 531 
1229 111 493 689 
1230 661 729 748 
1231 76 77 744 
1232 166 517 702 
1233 160 161 508 
1234 627 628 725 
1235 554 553 555 
1236 597 555 598 
1237 504 117 659 
1238 660 661 798 
1239 663 121 696 
1240 161 162 707 
1241 159 160 698 
1242 57 58 704 
1243 742 763 772 
1244 667 527 721 
1245 653 491 785 
1246 71 72 741 
1247 582 497 739 
1248 94 95 713 
1249 118 119 697 
1250 679 670 721 
1251 157 158 506 
1252 743 524 795 
1253 628 636 637 
1254 158 159 710 
1255 736 651 741 
1256 552 549 553 
1257 625 521 784 
1258 95 96 519 
1259 568 567 569 
1260 156 157 703 
1261 706 632 733 
1262 492 724 746 
1263 69 70 743 
1264 672 670 679 
1265 779 529 798 
1266 96 97 714 
1267 517 167 695 
1268 121 122 696 
1269 548 546 549 
1270 154 155 503 
1271 129 130 701 
1272 637 645 646 
1273 58 529 704 
1274 545 544 546 
1275 648 649 650 
1276 155 156 712 
1277 153 154 705 
1278 151 152 502 
1279 128 511 727 
1280 646 647 648 
1281 543 542 544 
1282 692 504 731 
1283 150 151 709 
1284 630 719 753 
1285 152 153 715 
1286 500 120 663 
1287 531 495 532 
1288 510 165 702 
1289 130 131 489 
1290 570 569 571 
1291 148 149 501 
1292 622 595 777 
1293 558 559 560 
1294 124 514 687 
1295 162 509 707 
1296 149 150 720 
1297 496 104 531 
1298 147 148 733 
1299 145 146 499 
1300 625 626 627 
1301 619 653 785 
1302 640 709 805 
1303 171 5 787 
1304 505 692 729 
1305 534 533 652 
1306 588 589 590 
1307 144 145 711 
1308 532 535 716 
1309 661 505 729 
1310 602 604 605 
1311 541 540 542 
1312 142 143 498 
1313 508 161 707 
1314 535 537 558 
1315 131 132 719 
1316 141 142 717 
1317 609 610 611 
1318 95 519 713 
1319 160 508 698 
1320 614 615 625 
1321 76 744 802 
1322 611 612 614 
1323 590 682 748 
1324 607 608 609 
1325 139 140 492 
1326 138 139 718 
1327 135 136 722 
1328 598 600 601 
1329 140 141 724 
1330 605 606 607 
1331 511 129 701 
1332 136 137 491 
1333 159 698 710 
1334 133 134 490 
1335 494 123 687 
1336 519 96 714 
1337 137 138 726 
1338 560 561 562 
1339 533 594 652 
1340 506 158 710 
1341 60 4 781 
1342 106 107 592 
1343 496 716 723 
1344 681 680 779 
1345 105 106 495 
1346 539 538 540 
1347 508 707 708 
1348 512 759 760 
1349 157 506 703 
1350 646 648 651 
1351 72 523 741 
1352 577 585 586 
1353 103 496 583 
1354 77 518 744 
1355 564 565 752 
1356 119 500 697 
1357 532 495 533 
1358 575 576 577 
1359 588 586 589 
1360 790 605 797 
1361 93 7 789 
1362 536 534 538 
1363 156 703 712 
1364 628 637 725 
1365 662 76 802 
1366 134 135 745 
1367 590 589 682 
1368 729 590 748 
1369 497 108 584 
1370 8 61 791 
1371 130 489 701 
1372 618 617 770 
1373 503 155 712 
1374 122 494 696 
1375 501 706 733 
1376 111 110 493 
1377 716 558 723 
1378 554 555 597 
1379 514 655 691 
1380 154 503 705 
1381 655 126 771 
1382 676 677 755 
1383 588 590 731 
1384 112 111 689 
1385 153 705 715 
1386 70 524 743 
1387 496 531 716 
1388 552 553 554 
1389 132 133 753 
1390 502 152 715 
1391 151 502 709 
1392 524 766 795 
1393 523 725 736 
1394 733 632 765 
1395 587 588 774 
1396 548 549 552 
1397 582 739 752 
1398 150 709 720 
1399 691 658 762 
1400 571 572 573 
1401 584 735 739 
1402 103 104 496 
1403 109 108 497 
1404 565 566 567 
1405 621 630 769 
1406 104 105 531 
1407 501 149 720 
1408 545 546 548 
1409 657 658 804 
1410 570 571 804 
1411 521 662 784 
1412 543 544 545 
1413 659 697 794 
1414 609 611 613 
1415 148 501 733 
1416 575 573 576 
1417 10 583 584 
1418 583 723 735 
1419 586 585 738 
1420 680 93 789 
1421 489 131 719 
1422 493 580 581 
1423 541 542 543 
1424 145 499 711 
1425 577 576 585 
1426 494 687 749 
1427 5 94 787 
1428 589 586 738 
1429 585 576 591 
1430 497 584 739 
1431 658 570 804 
1432 730 572 742 
1433 597 598 764 
1434 88 89 750 
1435 661 748 778 
1436 7 57 789 
1437 142 498 717 
1438 146 147 765 
1439 680 704 779 
1440 637 646 736 
1441 97 8 791 
1442 141 717 724 
1443 10 103 583 
1444 539 540 541 
1445 583 496 723 
1446 573 572 730 
1447 704 680 789 
1448 139 492 718 
1449 492 140 724 
1450 61 688 791 
1451 138 718 726 
1452 136 491 722 
1453 646 651 736 
1454 108 10 584 
1455 147 733 765 
1456 491 726 785 
1457 771 689 799 
1458 607 609 740 
1459 491 137 726 
1460 558 537 559 
1461 530 171 787 
1462 560 559 561 
1463 660 685 781 
1464 584 583 735 
1465 719 132 753 
1466 726 620 785 
1467 135 722 745 
1468 591 750 793 
1469 493 110 579 
1470 536 538 539 
1471 499 146 765 
1472 545 548 550 
1473 489 719 734 
1474 490 134 745 
1475 576 573 730 
1476 133 490 753 
1477 725 637 736 
1478 683 684 767 
1479 571 569 572 
1480 539 541 547 
1481 754 623 761 
1482 581 580 737 
1483 699 701 758 
1484 144 711 775 
1485 739 564 752 
1486 750 591 792 
1487 761 623 782 
1488 711 644 775 
1489 643 633 783 
1490 651 648 766 
1491 565 562 566 
1492 707 509 776 
1493 532 533 534 
1494 578 566 732 
1495 602 605 790 
1496 509 728 776 
1497 69 743 788 
1498 143 144 775 
1499 764 601 783 
1500 713 530 787 
1501 567 566 578 
1502 711 499 747 
1503 498 143 775 
1504 561 559 563 
1505 532 534 535 
1506 649 647 803 
1507 592 107 773 
1508 543 545 754 
1509 591 576 730 
1510 609 613 740 
1511 677 675 788 
1512 655 771 799 
1513 648 650 766 
1514 598 601 764 
1515 535 536 537 
1516 561 563 693 
1517 535 534 536 
1518 562 561 768 
1519 685 60 781 
1520 688 714 791 
1521 694 684 786 
1522 647 710 803 
1523 529 685 798 
1524 127 727 773 
1525 113 660 781 
1526 735 564 739 
1527 742 572 763 
1528 749 687 762 
1529 614 625 784 
1530 643 790 797 
1531 493 579 580 
1532 112 689 771 
1533 677 743 795 
1534 504 659 774 
1535 731 504 774 
1536 701 489 758 
1537 613 611 780 
1538 756 547 757 
1539 545 550 754 
1540 631 699 758 
1541 687 514 762 
1542 489 734 758 
1543 743 677 788 
1544 650 755 795 
1545 552 554 760 
1546 704 529 779 
1547 708 707 776 
1548 757 547 782 
1549 567 578 763 
1550 566 562 768 
1551 732 566 768 
1552 569 567 763 
1553 548 552 759 
1554 738 585 793 
1555 539 547 756 
1556 514 691 762 
1557 611 614 780 
1558 698 649 803 
1559 607 740 797 
1560 717 498 770 
1561 561 693 768 
1562 543 754 761 
1563 541 543 761 
1564 94 713 787 
1565 550 548 759 
1566 757 563 800 
1567 57 704 789 
1568 581 691 799 
1569 536 539 756 
1570 755 677 795 
1571 547 541 761 
1572 601 602 790 
1573 693 563 777 
1574 563 559 800 
1575 689 581 799 
1576 622 757 782 
1577 714 97 791 
1578 537 536 756 
1579 588 731 774 
1580 572 569 763 
1581 759 552 760 
1582 691 655 799 
1583 730 742 792 
1584 513 742 772 
1585 710 698 803 
1586 756 757 800 
1587 605 607 797 
1588 516 738 793 
1589 744 613 802 
1590 585 591 793 
1591 613 780 802 
1592 748 681 778 
1593 547 761 782 
1594 780 614 784 
1595 778 681 779 
1596 537 756 800 
1597 559 537 800 
1598 623 754 801 
1599 591 730 792 
1600 766 650 795 
1601 742 513 792 
1602 754 550 801 
1603 783 601 790 
1604 662 780 784 
1605 550 759 796 
1606 661 778 798 
1607 780 662 802 
1608 643 783 790 
1609 796 593 801 
1610 550 796 801 
$EndElements
